<svg id="Layer_1" enable-background="new 0 0 511.879 511.879" height="512" viewBox="0 0 511.879 511.879" width="512" xmlns="http://www.w3.org/2000/svg"><g><path d="m64.997 362.879c-.349-55.816 38.971-74.477 86.974-73.08 6.494.003 12.047-4.718 13.026-11.137 5.785-37.961 17-77.91 70-77.91 29 0 54.718 10.325 65.604 26.572-19.961-104.304-169.945-96.07-176.697 10.697-56.487-2.527-104.045 43.604-103.907 100.137-.148 56.854 47.741 102.168 104.397 99.722-30.318-12.81-59.397-32.001-59.397-75.001z" fill="#cee1f2"/><path d="m349.997 457.879c-26.549-1.07-26.507-38.952 0-40 21.869 0 39-17.461 39-39.751 0-14.84-8.187-28.343-21.365-35.24-9.027-4.725-13.06-15.481-9.362-24.977 14.974-35.879-16.693-76.833-55.096-70.138-10.677 1.325-20.493-6.039-22.207-16.663-15.399-81.345-131.87-75.095-137.076 7.617-.188 5.32-2.49 10.346-6.396 13.965-3.906 3.618-9.113 5.534-14.413 5.31-45.116-2.021-83.184 34.737-83.084 80.154 0 43.959 35.439 79.723 79 79.723 11.046 0 20 8.954 20 20s-8.954 20-20 20c-31.973 0-61.935-12.479-84.366-35.138-70.456-70.294-26.401-193.589 71.544-204.051 15.711-79.349 115.991-113.584 177.729-59.288 14.862 12.838 25.938 29.376 32.171 47.722 54.151 2.909 95.494 55.882 84.109 109.63 35.584 28.294 38.528 85.695 5.954 117.642-14.881 15.144-34.82 23.483-56.142 23.483zm116.63-140.823c52.111-24.407 61.111-97.305 16.557-133.349 11.383-53.753-29.958-106.717-84.109-109.629-6.232-18.346-17.309-34.884-32.171-47.722-36.635-32.687-95.53-35.146-134.812-6.393-18.293 13.019-31.789 31.167-39.031 52.482-3.554 10.459 2.044 21.818 12.503 25.371 10.46 3.554 21.817-2.044 25.37-12.503 23.46-66.82 121.219-57.003 133.033 12.75 1.714 10.625 11.53 17.99 22.207 16.663 38.409-6.689 70.066 34.25 55.096 70.137-3.697 9.495.334 20.252 9.362 24.978 28.95 14.864 28.05 57.26-1.265 71.131-9.965 4.767-14.179 16.708-9.412 26.672 3.435 7.181 10.595 11.375 18.056 11.375 2.893 0 5.832-.631 8.616-1.963z" fill="#0023c4"/><path d="m209.991 511.879c-5.223 0-10.438-2.032-14.36-6.077-7.689-7.93-7.494-20.592.436-28.281l51.188-49.634h-44.775c-15.325 0-28.949-9.18-34.71-23.386-5.763-14.214-2.376-30.299 8.629-40.979l57.698-55.995c7.928-7.692 20.589-7.502 28.281.424 7.692 7.927 7.503 20.589-.424 28.281l-53.227 51.655h44.777c15.295 0 28.909 9.155 34.684 23.324 5.777 14.177 2.438 30.25-8.508 40.948l-55.77 54.078c-3.883 3.767-8.904 5.642-13.919 5.642z" fill="#ff5cf3"/></g></svg>